<?xml version="1.0" encoding="UTF-8" standalone="no"?>
<!DOCTYPE svg PUBLIC "-//W3C//DTD SVG 1.1//EN"
		"http://www.w3.org/Graphics/SVG/1.1/DTD/svg11.dtd">
<!-- Generated by graphviz version 2.44.0 (0)
 -->
<!-- Title: Example Pages: 1 -->
<svg width="358pt" height="260pt"
     viewBox="0.00 0.00 357.94 260.00" xmlns="http://www.w3.org/2000/svg">
	<g id="graph0" class="graph" transform="scale(1 1) rotate(0) translate(4 256)">
		<title>Example</title>
		<polygon fill="white" stroke="transparent" points="-4,4 -4,-256 353.94,-256 353.94,4 -4,4"/>
		<!-- WebApp -->
		<g id="node1" class="node">
			<title>WebApp</title>
			<ellipse fill="none" stroke="blue" cx="48.1" cy="-234" rx="48.19" ry="18"/>
			<text text-anchor="middle" x="48.1" y="-230.3" font-family="Times-Roman" font-size="14.00">WebApp</text>
		</g>
		<!-- Gateway -->
		<g id="node4" class="node">
			<title>Gateway</title>
			<ellipse fill="none" stroke="black" cx="178.1" cy="-162" rx="50.09" ry="18"/>
			<text text-anchor="middle" x="178.1" y="-158.3" font-family="Times-Roman" font-size="14.00">Gateway</text>
		</g>
		<!-- WebApp&#45;&gt;Gateway -->
		<g id="edge1" class="edge">
			<title>WebApp&#45;&gt;Gateway</title>
			<path fill="none" stroke="black" d="M74.4,-218.83C94.01,-208.28 121,-193.75 142.53,-182.15"/>
			<polygon fill="black" stroke="black" points="144.24,-185.21 151.38,-177.38 140.92,-179.04 144.24,-185.21"/>
		</g>
		<!-- AndroidApp -->
		<g id="node2" class="node">
			<title>AndroidApp</title>
			<ellipse fill="none" stroke="blue" cx="178.1" cy="-234" rx="63.89" ry="18"/>
			<text text-anchor="middle" x="178.1" y="-230.3" font-family="Times-Roman" font-size="14.00">AndroidApp
			</text>
		</g>
		<!-- AndroidApp&#45;&gt;Gateway -->
		<g id="edge2" class="edge">
			<title>AndroidApp&#45;&gt;Gateway</title>
			<path fill="none" stroke="black" d="M178.1,-215.7C178.1,-207.98 178.1,-198.71 178.1,-190.11"/>
			<polygon fill="black" stroke="black" points="181.6,-190.1 178.1,-180.1 174.6,-190.1 181.6,-190.1"/>
		</g>
		<!-- IOSApp -->
		<g id="node3" class="node">
			<title>IOSApp</title>
			<ellipse fill="none" stroke="blue" cx="305.1" cy="-234" rx="44.69" ry="18"/>
			<text text-anchor="middle" x="305.1" y="-230.3" font-family="Times-Roman" font-size="14.00">IOSApp</text>
		</g>
		<!-- IOSApp&#45;&gt;Gateway -->
		<g id="edge3" class="edge">
			<title>IOSApp&#45;&gt;Gateway</title>
			<path fill="none" stroke="black" d="M279.7,-219C260.66,-208.51 234.36,-194.01 213.29,-182.4"/>
			<polygon fill="black" stroke="black" points="214.77,-179.22 204.32,-177.45 211.39,-185.35 214.77,-179.22"/>
		</g>
		<!-- Login -->
		<g id="node5" class="node">
			<title>Login</title>
			<ellipse fill="none" stroke="green" cx="178.1" cy="-90" rx="35.19" ry="18"/>
			<text text-anchor="middle" x="178.1" y="-86.3" font-family="Times-Roman" font-size="14.00">Login</text>
		</g>
		<!-- Gateway&#45;&gt;Login -->
		<g id="edge4" class="edge">
			<title>Gateway&#45;&gt;Login</title>
			<path fill="none" stroke="black" d="M178.1,-143.7C178.1,-135.98 178.1,-126.71 178.1,-118.11"/>
			<polygon fill="black" stroke="black" points="181.6,-118.1 178.1,-108.1 174.6,-118.1 181.6,-118.1"/>
		</g>
		<!-- Users -->
		<g id="node6" class="node">
			<title>Users</title>
			<ellipse fill="none" stroke="green" cx="89.1" cy="-90" rx="36.29" ry="18"/>
			<text text-anchor="middle" x="89.1" y="-86.3" font-family="Times-Roman" font-size="14.00">Users</text>
		</g>
		<!-- Gateway&#45;&gt;Users -->
		<g id="edge5" class="edge">
			<title>Gateway&#45;&gt;Users</title>
			<path fill="none" stroke="black" d="M157.9,-145.12C145.41,-135.29 129.24,-122.58 115.72,-111.94"/>
			<polygon fill="black" stroke="black" points="117.72,-109.06 107.69,-105.63 113.39,-114.56 117.72,-109.06"/>
		</g>
		<!-- Catalogs -->
		<g id="node7" class="node">
			<title>Catalogs</title>
			<ellipse fill="none" stroke="green" cx="283.1" cy="-90" rx="50.09" ry="18"/>
			<text text-anchor="middle" x="283.1" y="-86.3" font-family="Times-Roman" font-size="14.00">Catalogs</text>
		</g>
		<!-- Gateway&#45;&gt;Catalogs -->
		<g id="edge6" class="edge">
			<title>Gateway&#45;&gt;Catalogs</title>
			<path fill="none" stroke="black" d="M200.88,-145.81C215.74,-135.9 235.34,-122.84 251.67,-111.95"/>
			<polygon fill="black" stroke="black" points="253.98,-114.62 260.36,-106.16 250.09,-108.79 253.98,-114.62"/>
		</g>
		<!-- Redis -->
		<g id="node8" class="node">
			<title>Redis</title>
			<ellipse fill="none" stroke="red" cx="171.1" cy="-18" rx="35.19" ry="18"/>
			<text text-anchor="middle" x="171.1" y="-14.3" font-family="Times-Roman" font-size="14.00">Redis</text>
		</g>
		<!-- Login&#45;&gt;Redis -->
		<g id="edge7" class="edge">
			<title>Login&#45;&gt;Redis</title>
			<path fill="none" stroke="black" d="M176.37,-71.7C175.59,-63.98 174.67,-54.71 173.81,-46.11"/>
			<polygon fill="black" stroke="black" points="177.28,-45.71 172.81,-36.1 170.32,-46.4 177.28,-45.71"/>
		</g>
		<!-- Solr -->
		<g id="node9" class="node">
			<title>Solr</title>
			<ellipse fill="none" stroke="red" cx="89.1" cy="-18" rx="28.7" ry="18"/>
			<text text-anchor="middle" x="89.1" y="-14.3" font-family="Times-Roman" font-size="14.00">Solr</text>
		</g>
		<!-- Login&#45;&gt;Solr -->
		<g id="edge8" class="edge">
			<title>Login&#45;&gt;Solr</title>
			<path fill="none" stroke="black" d="M159.65,-74.5C146.55,-64.19 128.78,-50.21 114.35,-38.86"/>
			<polygon fill="black" stroke="black" points="116.33,-35.97 106.31,-32.54 112,-41.47 116.33,-35.97"/>
		</g>
		<!-- Users&#45;&gt;Redis -->
		<g id="edge9" class="edge">
			<title>Users&#45;&gt;Redis</title>
			<path fill="none" stroke="black" d="M106.49,-74.15C117.9,-64.41 133.02,-51.5 145.76,-40.63"/>
			<polygon fill="black" stroke="black" points="148.4,-42.98 153.73,-33.82 143.85,-37.65 148.4,-42.98"/>
		</g>
		<!-- Users&#45;&gt;Solr -->
		<g id="edge10" class="edge">
			<title>Users&#45;&gt;Solr</title>
			<path fill="none" stroke="black" d="M89.1,-71.7C89.1,-63.98 89.1,-54.71 89.1,-46.11"/>
			<polygon fill="black" stroke="black" points="92.6,-46.1 89.1,-36.1 85.6,-46.1 92.6,-46.1"/>
		</g>
		<!-- PostgreSQL -->
		<g id="node10" class="node">
			<title>PostgreSQL</title>
			<ellipse fill="none" stroke="red" cx="286.1" cy="-18" rx="62.29" ry="18"/>
			<text text-anchor="middle" x="286.1" y="-14.3" font-family="Times-Roman" font-size="14.00">PostgreSQL</text>
		</g>
		<!-- Catalogs&#45;&gt;PostgreSQL -->
		<g id="edge11" class="edge">
			<title>Catalogs&#45;&gt;PostgreSQL</title>
			<path fill="none" stroke="black" d="M283.84,-71.7C284.17,-63.98 284.57,-54.71 284.93,-46.11"/>
			<polygon fill="black" stroke="black" points="288.43,-46.25 285.36,-36.1 281.44,-45.95 288.43,-46.25"/>
		</g>
	</g>
</svg>
