<?xml version="1.0" encoding="UTF-8" standalone="no"?>
<!DOCTYPE svg PUBLIC "-//W3C//DTD SVG 1.1//EN"
		"http://www.w3.org/Graphics/SVG/1.1/DTD/svg11.dtd">
<!-- Generated by graphviz version 2.44.0 (0)
 -->
<!-- Pages: 1 -->
<svg width="317pt" height="343pt"
     viewBox="0.00 0.00 317.00 342.76" xmlns="http://www.w3.org/2000/svg">
	<g id="graph0" class="graph" transform="scale(1 1) rotate(0) translate(4 338.76)">
		<polygon fill="white" stroke="transparent" points="-4,4 -4,-338.76 313,-338.76 313,4 -4,4"/>
		<g id="clust1" class="cluster">
			<title>cluster_1661228684</title>
			<polygon fill="none" stroke="blue" points="125,-8 125,-92.25 297,-92.25 297,-8 125,-8"/>
			<text text-anchor="middle" x="211" y="-77.05" font-family="Times-Roman" font-size="14.00">Frontend
				services
			</text>
		</g>
		<g id="clust2" class="cluster">
			<title>cluster_866315194</title>
			<polygon fill="none" stroke="blue" points="121,-242.51 121,-326.76 301,-326.76 301,-242.51 121,-242.51"/>
			<text text-anchor="middle" x="211" y="-311.56" font-family="Times-Roman" font-size="14.00">Search Engine
			</text>
		</g>
		<g id="clust3" class="cluster">
			<title>cluster_135615626</title>
			<polygon fill="none" stroke="blue" points="8,-125.25 8,-209.51 264,-209.51 264,-125.25 8,-125.25"/>
			<text text-anchor="middle" x="136" y="-194.31" font-family="Times-Roman" font-size="14.00">Backend
				services
			</text>
		</g>
		<!-- Landing page1661228684 -->
		<g id="node1" class="node">
			<title>Landing page1661228684</title>
			<ellipse fill="none" stroke="black" cx="211" cy="-38.63" rx="78.48" ry="22.76"/>
			<text text-anchor="start" x="163.5" y="-40.43" font-family="Times-Roman" font-size="14.00">Landing page
			</text>
			<text text-anchor="start" x="192.5" y="-29.63" font-family="Times-Roman" font-size="10.00">landing</text>
		</g>
		<!-- Search engine866315194 -->
		<g id="node2" class="node">
			<title>Search engine866315194</title>
			<ellipse fill="none" stroke="black" cx="211" cy="-273.14" rx="82.05" ry="22.76"/>
			<text text-anchor="start" x="161" y="-274.94" font-family="Times-Roman" font-size="14.00">Search engine
			</text>
			<text text-anchor="start" x="175" y="-264.14" font-family="Times-Roman" font-size="10.00">search, google
			</text>
		</g>
		<!-- Crypto135615626 -->
		<g id="node3" class="node">
			<title>Crypto135615626</title>
			<ellipse fill="none" stroke="black" cx="211" cy="-155.88" rx="44.6" ry="22.76"/>
			<text text-anchor="start" x="187.5" y="-157.68" font-family="Times-Roman" font-size="14.00">Crypto</text>
			<text text-anchor="start" x="195.5" y="-146.88" font-family="Times-Roman" font-size="10.00">crypto</text>
		</g>
		<!-- Search engine866315194&#45;&gt;Crypto135615626 -->
		<g id="edge2" class="edge">
			<title>Search engine866315194&#45;&gt;Crypto135615626</title>
			<path fill="none" stroke="black" d="M211,-242.51C211,-235.44 211,-227.63 211,-219.69"/>
			<polygon fill="black" stroke="black" points="214.5,-219.51 211,-209.51 207.5,-219.51 214.5,-219.51"/>
		</g>
		<!-- Crypto135615626&#45;&gt;Landing page1661228684 -->
		<g id="edge1" class="edge">
			<title>Crypto135615626&#45;&gt;Landing page1661228684</title>
			<path fill="none" stroke="black" d="M211,-125.26C211,-118.19 211,-110.38 211,-102.44"/>
			<polygon fill="black" stroke="black" points="214.5,-102.25 211,-92.25 207.5,-102.25 214.5,-102.25"/>
		</g>
		<!-- Users135615626 -->
		<g id="node4" class="node">
			<title>Users135615626</title>
			<ellipse fill="none" stroke="black" cx="82" cy="-155.88" rx="66.44" ry="22.76"/>
			<text text-anchor="start" x="62" y="-157.68" font-family="Times-Roman" font-size="14.00">Users</text>
			<text text-anchor="start" x="43" y="-146.88" font-family="Times-Roman" font-size="10.00">rpc&#45;users,
				users
			</text>
		</g>
	</g>
</svg>
