<?xml version="1.0" encoding="UTF-8" standalone="no"?>
<!DOCTYPE svg PUBLIC "-//W3C//DTD SVG 1.1//EN"
		"http://www.w3.org/Graphics/SVG/1.1/DTD/svg11.dtd">
<!-- Generated by graphviz version 2.44.0 (0)
 -->
<!-- Title: Example Pages: 1 -->
<svg width="180pt" height="188pt"
     viewBox="0.00 0.00 180.34 188.00" xmlns="http://www.w3.org/2000/svg">
	<g id="graph0" class="graph" transform="scale(1 1) rotate(0) translate(4 184)">
		<title>Example</title>
		<polygon fill="white" stroke="transparent" points="-4,4 -4,-184 176.34,-184 176.34,4 -4,4"/>
		<!-- Landing page -->
		<g id="node1" class="node">
			<title>Landing page</title>
			<ellipse fill="none" stroke="black" cx="83.4" cy="-162" rx="72.29" ry="18"/>
			<text text-anchor="middle" x="83.4" y="-158.3" font-family="Times-Roman" font-size="14.00">Landing page
			</text>
		</g>
		<!-- Users -->
		<g id="node2" class="node">
			<title>Users</title>
			<ellipse fill="none" stroke="black" cx="36.4" cy="-90" rx="36.29" ry="18"/>
			<text text-anchor="middle" x="36.4" y="-86.3" font-family="Times-Roman" font-size="14.00">Users</text>
		</g>
		<!-- Landing page&#45;&gt;Users -->
		<g id="edge1" class="edge">
			<title>Landing page&#45;&gt;Users</title>
			<path fill="none" stroke="black" d="M72.02,-144.05C66.34,-135.59 59.35,-125.19 53.08,-115.84"/>
			<polygon fill="black" stroke="black" points="55.83,-113.66 47.35,-107.31 50.01,-117.56 55.83,-113.66"/>
		</g>
		<!-- Crypto -->
		<g id="node3" class="node">
			<title>Crypto</title>
			<ellipse fill="none" stroke="black" cx="131.4" cy="-90" rx="40.89" ry="18"/>
			<text text-anchor="middle" x="131.4" y="-86.3" font-family="Times-Roman" font-size="14.00">Crypto</text>
		</g>
		<!-- Landing page&#45;&gt;Crypto -->
		<g id="edge2" class="edge">
			<title>Landing page&#45;&gt;Crypto</title>
			<path fill="none" stroke="black" d="M95.02,-144.05C100.74,-135.71 107.75,-125.49 114.08,-116.25"/>
			<polygon fill="black" stroke="black" points="117.12,-118.02 119.88,-107.79 111.34,-114.06 117.12,-118.02"/>
		</g>
		<!-- Search engine -->
		<g id="node4" class="node">
			<title>Search engine</title>
			<ellipse fill="none" stroke="black" cx="83.4" cy="-18" rx="75.29" ry="18"/>
			<text text-anchor="middle" x="83.4" y="-14.3" font-family="Times-Roman" font-size="14.00">Search engine
			</text>
		</g>
		<!-- Users&#45;&gt;Search engine -->
		<g id="edge3" class="edge">
			<title>Users&#45;&gt;Search engine</title>
			<path fill="none" stroke="black" d="M47.3,-72.76C52.94,-64.35 59.97,-53.89 66.32,-44.44"/>
			<polygon fill="black" stroke="black" points="69.23,-46.38 71.9,-36.12 63.42,-42.48 69.23,-46.38"/>
		</g>
		<!-- Crypto&#45;&gt;Search engine -->
		<g id="edge4" class="edge">
			<title>Crypto&#45;&gt;Search engine</title>
			<path fill="none" stroke="black" d="M120.02,-72.41C114.31,-64.08 107.26,-53.8 100.87,-44.49"/>
			<polygon fill="black" stroke="black" points="103.57,-42.22 95.02,-35.96 97.79,-46.18 103.57,-42.22"/>
		</g>
	</g>
</svg>
