<?xml version="1.0" encoding="UTF-8" standalone="no"?>
<!DOCTYPE svg PUBLIC "-//W3C//DTD SVG 1.1//EN"
		"http://www.w3.org/Graphics/SVG/1.1/DTD/svg11.dtd">
<!-- Generated by graphviz version 2.44.0 (0)
 -->
<!-- Pages: 1 -->
<svg width="258pt" height="116pt"
     viewBox="0.00 0.00 257.99 116.00" xmlns="http://www.w3.org/2000/svg">
	<g id="graph0" class="graph" transform="scale(1 1) rotate(0) translate(4 112)">
		<polygon fill="white" stroke="transparent" points="-4,4 -4,-112 253.99,-112 253.99,4 -4,4"/>
		<!-- Admin service -->
		<g id="node1" class="node">
			<title>Admin service</title>
			<ellipse fill="none" stroke="black" cx="74.74" cy="-90" rx="74.99" ry="18"/>
			<text text-anchor="middle" x="74.74" y="-86.3" font-family="Times-Roman" font-size="14.00">Admin service
			</text>
		</g>
		<!-- Editor service -->
		<g id="node2" class="node">
			<title>Editor service</title>
			<ellipse fill="none" stroke="black" cx="74.74" cy="-18" rx="72.59" ry="18"/>
			<text text-anchor="middle" x="74.74" y="-14.3" font-family="Times-Roman" font-size="14.00">Editor service
			</text>
		</g>
		<!-- Admin service&#45;&gt;Editor service -->
		<g id="edge1" class="edge">
			<title>Admin service&#45;&gt;Editor service</title>
			<path fill="none" stroke="black" d="M74.74,-71.7C74.74,-63.98 74.74,-54.71 74.74,-46.11"/>
			<polygon fill="black" stroke="black" points="78.24,-46.1 74.74,-36.1 71.24,-46.1 78.24,-46.1"/>
		</g>
		<!-- hola -->
		<g id="node3" class="node">
			<title>hola</title>
			<ellipse fill="none" stroke="black" cx="207.74" cy="-90" rx="29.8" ry="18"/>
			<text text-anchor="middle" x="207.74" y="-86.3" font-family="Times-Roman" font-size="14.00">hola</text>
		</g>
		<!-- mundo -->
		<g id="node4" class="node">
			<title>mundo</title>
			<ellipse fill="none" stroke="black" cx="207.74" cy="-18" rx="42.49" ry="18"/>
			<text text-anchor="middle" x="207.74" y="-14.3" font-family="Times-Roman" font-size="14.00">mundo</text>
		</g>
		<!-- hola&#45;&gt;mundo -->
		<g id="edge2" class="edge">
			<title>hola&#45;&gt;mundo</title>
			<path fill="none" stroke="black" d="M207.74,-71.7C207.74,-63.98 207.74,-54.71 207.74,-46.11"/>
			<polygon fill="black" stroke="black" points="211.24,-46.1 207.74,-36.1 204.24,-46.1 211.24,-46.1"/>
		</g>
	</g>
</svg>
